<?xml version="1.0" encoding="UTF-8"?>
<svg id="Livello_1" xmlns="http://www.w3.org/2000/svg" version="1.1" viewBox="0 0 1700.79 1732.23">
  <!-- Generator: Adobe Illustrator 29.2.1, SVG Export Plug-In . SVG Version: 2.1.0 Build 116)  -->
  <defs>
    <style>
      .st0 {
        fill: #1a171b;
      }
    </style>
  </defs>
  <g>
    <path class="st0" d="M427.07,1601.86h769.61l278.07-654.34s51.12-91.47,0-210.15l-220.19-535.72h369.36l54.33,115.39h-250.97l149.25,362.81s81.41,132.18,6.81,308.23l-311.94,729.05H352.4L47.19,1005.09s-67.66-152.53,10.41-328.77L298.14,103.53S335.5,15.13,450.78,15.13h1098.65l50.75,118.76H454.38s-34.09-3.44-47.57,23.67l-254.37,599.99s-44.1,84.74,6.64,203.45l268,640.85Z"/>
    <rect class="st0" x="334.47" y="494.72" width="143.95" height="439.24"/>
    <path class="st0" d="M935.65,933.96l157.32-439.24h146.64l157.39,439.24h-143.31l-17.06-57.91h-143.66l-16.47,57.91h-140.85M1165.19,627l-44.49,157.6h90.52l-46.03-157.6Z"/>
    <path class="st0" d="M970.5,668.72c-22.44-109.28-119.04-191.56-234.78-191.56-132.58,0-239.8,107.31-239.8,239.87s107.22,239.83,239.8,239.83c114.62,0,210.45-80.47,234.08-188.36l-147.12-.63c-18.31,30.62-52.06,51.27-90.54,51.27-58.03,0-105.38-47.21-105.38-105.59s47.35-105.41,105.38-105.41c42.37,0,79.07,23.74,95.62,59.76l142.74.83Z"/>
    <path class="st0" d="M321.85,1056.23s128.93-42.52,210.33-42.52c0,0,25.5-3.52,117.1,22.12,0,0,67.79,27.11,160.89,27.11,0,0,42.25,3.4,133.91-20.4,0,0,96.86-30.56,152.59-30.56,0,0,82.95,1.73,210.31,45.82l-45.85,108.41s-64.45-33.78-152.48-33.78c0,0-78.21,0-145.9,18.59,0,0-74.53,27.27-163,27.27,0,0-45.6,1.56-138.73-27.27,0,0-86.13-35.9-193.21-11.89l-100.02,23.59-45.93-106.48Z"/>
    <path class="st0" d="M389.95,1224.04s69.41-39.22,143.88-39.22c0,0,45.76-1.66,152.7,32.28,0,0,59.29,16.96,121.95,16.96,0,0,40.76,1.8,144.18-23.78,0,0,74.75-25.46,147.33-25.46,0,0,56.08,3.5,137.54,37.4l-47.48,113.44s-49.19-31.95-108.54-31.95c0,0-62.72,3.11-134,25.41,0,0-49.07,20.36-139.03,20.36,0,0-66.16,3.3-157.61-28.95,0,0-61.04-22.03-108.53-18.47,0,0-72.9,8.39-104.97,35.65l-47.43-113.68Z"/>
  </g>
  <path class="st0" d="M1591.47,364.78c17.68,0,33.29,6.65,45.98,19.62,12.75,12.93,18.8,28.26,18.8,45.65,0,18.41-6.05,34.06-18.8,46.6-12.69,13.03-28.3,19.5-45.98,19.5s-33.53-6.42-46.2-19.1c-12.89-12.84-19.25-28.45-19.25-47.01,0-17.46,6.13-32.95,18.8-45.65,12.77-12.97,28.23-19.62,46.65-19.62M1670.19,430.05c0-21.88-7.44-40.68-22.98-56.13-15.45-15.49-34.52-23.21-55.96-23.21s-39.1,6.94-54.36,21.58c-16.71,15.34-24.79,34.48-24.79,57.76s7.63,40.95,22.72,56.32c15.35,15.4,34.22,22.97,56.43,22.97s39.94-7.38,55.42-22.38c15.63-15.32,23.52-34.3,23.52-56.91M1605.29,413.37c0,4.77-1.63,8.22-4.7,10.33-2.93,2.13-7.22,3.28-12.43,3.28h-9.02v-25.61h5.62c5.82,0,10.23.77,13.28,2.09,4.63,1.89,7.24,5.33,7.24,9.92M1579.14,473.83v-31.18h4.91l4.95.5c3.85.04,6.03.38,7.84,1.19,3.16,1.15,5.33,3.49,6.49,6.55.41,1.78,1.32,5.42,1.39,10.72.04,5.12.79,9.39,1.47,12.22h22.02l-.38-2.48c-.33-.92-.51-1.79-.51-2.6,0-.89-.11-1.94-.11-2.45v-7.88c0-9.17-2.63-15.67-8.11-19.69-3-2.39-7-3.86-12.67-4.95,5.86-.71,11.06-2.72,15.25-5.96,4.12-3.45,6.26-8.7,6.26-16,0-9.68-4.01-16.51-11.84-20.85-4.61-2.57-10.43-3.96-17.35-4.61-.94,0-7.28-.16-17.91-.16h-24.41v87.63h22.71Z"/>
</svg>